<?xml version="1.0" encoding="UTF-8"?>
<svg id="Layer_2" data-name="Layer 2" xmlns="http://www.w3.org/2000/svg" viewBox="0 0 235.51 121.86">
  <defs>
    <style>
      .cls-1 {
        fill: #2fad7d;
        stroke: #2fad7d;
        stroke-miterlimit: 10;
        stroke-width: 2px;
      }
    </style>
  </defs>
  <g id="Layer_1-2" data-name="Layer 1">
    <path class="cls-1" d="M49.7,42.8c0,11.98-8.12,17.97-24.35,17.97S1,54.71,1,42.6l.13-23.73h11.12v24.48c0,4.58,2.24,7.64,6.71,9.17,1.7.62,3.83.93,6.38.93,4.65,0,8.01-.99,10.07-2.98,2.01-1.98,3.02-4.36,3.02-7.12V1h11.25v41.8Z"/>
    <path class="cls-1" d="M88.88,31.62c-.62-4.56-3.6-6.84-8.94-6.84-2.36,0-4.4.36-6.14,1.09s-2.6,1.79-2.6,3.18.86,2.45,2.57,3.18c1.71.73,4.59,1.63,8.64,2.7,7.84,2.07,13.05,4.03,15.62,5.88,2.57,1.84,3.81,4.35,3.72,7.52,0,8.23-7.22,12.34-21.67,12.34-9.97,0-16.11-1.74-18.42-5.22-2.3-3.48-3.57-6.53-3.79-9.13h11.25c.8,4.88,4.56,7.32,11.28,7.32s10.08-1.76,10.08-5.3c0-2.01-1.47-3.46-4.41-4.37-2.94-.91-5.34-1.63-7.21-2.19-1.87-.55-3.63-1.07-5.29-1.55-1.66-.48-4.43-1.43-8.33-2.84-3.9-1.41-5.84-3.85-5.84-7.31,0-5.33,2.45-8.63,7.35-9.91,4.9-1.28,8.89-1.92,11.98-1.92,6.64,0,11.78.99,15.41,2.98s5.63,5.45,5.99,10.4h-11.25Z"/>
    <path class="cls-1" d="M110.12,33.18v-9.42h11.25v3.12h12.66l-.07,6.3h-23.85ZM110.12,53.49l.07-9.33h11.18l-.07,3.03h12.66l.07,6.3h-23.91Z"/>
    <path class="cls-1" d="M149.48,24.78c-1.07,0-3.89.58-8.44,1.74l.13-6.46c4.78-1.21,8.28-1.82,10.5-1.82,6.84,0,11.15,1.69,12.94,5.06.94,1.83.96,3.58.06,5.25-.9,1.67-2.42,3.6-4.57,5.79-2.15,2.19-3.45,3.69-3.9,4.5-.4.81-.63,1.56-.67,2.25-.04.65-.11,1.29-.2,1.9l.07,2.69c0,2.41.92,4.31,2.76,5.71,1.84,1.4,4.23,2.12,7.19,2.15,6.5.1,9.75-2.31,9.75-7.23l.13-2.73c0-3.94-2.04-6.12-6.12-6.54-1.3-.13-2.76-.21-4.37-.24l-.07-5.91c6.18,0,9.88-2.26,11.09-6.77.4-1.55.6-3.31.6-5.29h11.25c0,7.63-3.2,12.58-9.59,14.84,2.53.55,4.28,1.28,5.26,2.19,2.08,1.98,3.13,4.56,3.13,7.75l-.07,3.31c.09,3.05-.91,5.69-2.99,7.89-3.46,4.03-9.62,6.04-18.47,6.04s-15.14-2.63-18.87-7.89c-1.2-1.75-1.82-3.76-1.87-6.04v-3.31c0-2.86.33-4.88,1-6.08.67-1.27,2.73-3.39,6.19-6.38,2.04-1.78,2.8-3.28,2.27-4.51-.49-1.26-1.87-1.89-4.13-1.89Z"/>
    <path class="cls-1" d="M193.32,32.3c0-4.46,2.08-7.96,6.23-10.5,4.15-2.54,9-3.81,14.54-3.81,9.51,0,15.79,2.66,18.82,7.98,1.03,1.79,1.54,3.92,1.54,6.36l.07,27.55h-11.25l-.07-26.07c.18-5.66-2.86-8.5-9.11-8.5-2.59,0-4.69.58-6.3,1.73-1.61,1.16-2.5,2.91-2.68,5.25h-11.79Z"/>
    <path class="cls-1" d="M48.66,91.42c0-4.36-3.66-6.54-10.99-6.54s-10.99.99-10.99,2.98c0,1.27,1.99,2.42,5.96,3.47,1.61.46,4.87,1.24,9.78,2.34,4.96,1.11,8.22,1.97,9.79,2.59,1.57.62,3.18,1.45,4.84,2.49s2.77,2.44,3.34,4.2c.57,1.73.85,3.37.85,4.93,0,5.63-3.93,9.47-11.79,11.52-4.93,1.33-10.68,1.66-17.25.98-8.53-.88-13.88-3.68-16.05-8.4-.58-1.24-.87-2.6-.87-4.1v-8.59h11.25v8.59c0,2.9,2.52,4.77,7.57,5.62,1.38.2,2.72.29,4.02.29,5.23,0,8.8-.99,10.72-2.98.76-.78,1.14-1.82,1.14-3.12,0-2.44-1.32-4.13-3.95-5.08-2.77-.98-7.61-2.28-14.54-3.91-6.92-1.59-11.37-3.19-13.33-4.79-1.97-1.59-2.9-3.5-2.81-5.71s1.23-4.21,3.42-6c4.02-2.9,9.96-4.35,17.82-4.35,11.01,0,18.18,2.44,21.51,7.32,1.2,1.69,1.8,3.78,1.8,6.25h-11.25Z"/>
    <path class="cls-1" d="M100.17,91.62c-.62-4.56-3.6-6.84-8.94-6.84-2.36,0-4.4.36-6.14,1.09s-2.6,1.79-2.6,3.18.86,2.45,2.57,3.18c1.71.73,4.59,1.63,8.64,2.7,7.84,2.07,13.05,4.03,15.62,5.88,2.57,1.84,3.81,4.35,3.72,7.52,0,8.23-7.22,12.34-21.67,12.34-9.97,0-16.11-1.74-18.42-5.22-2.3-3.48-3.57-6.53-3.79-9.13h11.25c.8,4.88,4.56,7.32,11.28,7.32s10.08-1.76,10.08-5.3c0-2.01-1.47-3.46-4.41-4.37-2.94-.91-5.34-1.63-7.21-2.19-1.87-.55-3.63-1.07-5.29-1.55-1.66-.48-4.43-1.43-8.33-2.84-3.9-1.41-5.84-3.85-5.84-7.31,0-5.33,2.45-8.63,7.35-9.91,4.9-1.28,8.89-1.92,11.98-1.92,6.64,0,11.78.99,15.41,2.98s5.63,5.45,5.99,10.4h-11.25Z"/>
    <path class="cls-1" d="M150.08,91.62c-.62-4.56-3.6-6.84-8.94-6.84-2.36,0-4.4.36-6.14,1.09s-2.6,1.79-2.6,3.18.86,2.45,2.57,3.18c1.71.73,4.59,1.63,8.64,2.7,7.84,2.07,13.05,4.03,15.62,5.88,2.57,1.84,3.81,4.35,3.72,7.52,0,8.23-7.22,12.34-21.67,12.34-9.97,0-16.11-1.74-18.42-5.22-2.3-3.48-3.57-6.53-3.79-9.13h11.25c.8,4.88,4.56,7.32,11.28,7.32s10.08-1.76,10.08-5.3c0-2.01-1.47-3.46-4.41-4.37-2.94-.91-5.34-1.63-7.21-2.19-1.87-.55-3.63-1.07-5.29-1.55-1.66-.48-4.43-1.43-8.33-2.84-3.9-1.41-5.84-3.85-5.84-7.31,0-5.33,2.45-8.63,7.35-9.91,4.9-1.28,8.89-1.92,11.98-1.92,6.64,0,11.78.99,15.41,2.98s5.63,5.45,5.99,10.4h-11.25Z"/>
    <path class="cls-1" d="M199.94,120.86c-7.39,0-13.14-2.01-17.24-6.03v5.05h-11.25v-41.11h11.65l-.13,22.31c0,5.6,2.94,9.33,8.82,11.18,1.96.62,4.01.93,6.15.93,5.3,0,8.78-1.48,10.42-4.44.49-.91.74-1.94.74-3.08l.07-26.9h11.19v26.12c0,7.75-3.53,12.7-10.6,14.84-2.62.75-5.89,1.12-9.8,1.12Z"/>
  </g>
</svg>